# xmcd
#
# Track frame offsets:
#	150
#	10498
#	21042
#	40812
#	50641
#	65635
#	75603
#	103162
#	117226
#	126385
#
# Disc length: 1825
#
# Revision: 2
# Processed by: cddbd v1.5.1PL0 Copyright (c) Steve Scherf et al.
# Submitted via: CDex 1.51
# Normalized: r0:DSETVAR1,TSWAP
#
DISCID=88071f0a
DTITLE=Various Artist - BOSSANOVA JAZZ VOL.3
DYEAR=2000
DGENRE=Jazz
TTITLE0=Lauritndo Ameida - One note samba
TTITLE1=Los indios trabajaras - Cariñoso
TTITLE2=Deodato - Ssurrando
TTITLE3=Elis Regina - O cavaleiro e os moinhos
TTITLE4=Gal Costa - Solitude
TTITLE5=Astrud Gilberto - O ganso
TTITLE6=Gal Costa - Um favor
TTITLE7=Elis Regina - Como nossos pais
TTITLE8=Deodato - Carvan
TTITLE9=Laurindo Almeida - Maria
EXTD=YEAR: 2000
EXTT0=
EXTT1=
EXTT2=
EXTT3=
EXTT4=
EXTT5=
EXTT6=
EXTT7=
EXTT8=
EXTT9=
PLAYORDER=
